<?xml version="1.0" encoding="iso-8859-1"?>
<!-- Generator: Adobe Illustrator 16.0.0, SVG Export Plug-In . SVG Version: 6.00 Build 0)  -->
<!DOCTYPE svg PUBLIC "-//W3C//DTD SVG 1.1//EN" "http://www.w3.org/Graphics/SVG/1.1/DTD/svg11.dtd">
<svg version="1.1" id="Capa_1" xmlns="http://www.w3.org/2000/svg" xmlns:xlink="http://www.w3.org/1999/xlink" x="0px" y="0px"
	 width="559.215px" height="559.215px" viewBox="0 0 559.215 559.215" style="enable-background:new 0 0 559.215 559.215;"
	 xml:space="preserve">
<g>
	<g>
		<path d="M538.598,94c0-49.438-40.221-89.658-89.658-89.658H110.294C60.857,4.342,20.637,44.562,20.637,94v194.836h517.967V94
			H538.598z M465.359,253.12c0,7.931-6.451,14.382-14.383,14.382H112.755c-7.932,0-14.382-6.451-14.382-14.382V66.46
			c0-7.932,6.45-14.382,14.382-14.382h338.222c7.932,0,14.383,6.45,14.383,14.382V253.12z"/>
		<path d="M94.658,554.873h369.91c52.186,0,94.646-42.455,94.646-94.64l-18.414-136.666c0.746-1.555,1.193-3.274,1.193-5.11v-2.038
			v-2.142v-2.381c0-6.566-5.324-11.892-11.893-11.892H29.125c-6.567,0-11.891,5.325-11.891,11.892v2.381v2.142v2.038
			c0,1.836,0.453,3.556,1.2,5.11L0,460.521C0.012,512.418,42.473,554.873,94.658,554.873z M526.822,374.296
			c7.02-0.33,12.9,3.396,13.133,8.323s-5.275,9.187-12.301,9.511s-12.9-3.396-13.133-8.323
			C514.295,378.88,519.803,374.626,526.822,374.296z M498.793,414.455c-7.02,0.331-12.902-3.396-13.135-8.323
			c-0.232-4.926,5.275-9.186,12.295-9.51c7.027-0.331,12.902,3.396,13.135,8.323C511.326,409.865,505.818,414.125,498.793,414.455z
			 M495.996,354.767c7.02-0.33,12.9,3.397,13.133,8.323c0.232,4.927-5.275,9.187-12.301,9.511s-12.902-3.396-13.135-8.323
			C483.467,359.351,488.977,355.092,495.996,354.767z M467.133,377.093c7.02-0.33,12.902,3.396,13.135,8.323
			s-5.275,9.187-12.303,9.511c-7.025,0.33-12.9-3.396-13.133-8.323C454.605,381.677,460.107,377.423,467.133,377.093z
			 M119.897,353.837c-0.012-7.662,6.438-14.119,14.37-14.119h290.7c7.932,0,14.383,6.451,14.383,14.382l18.348,146.617
			c0.012,8.194-6.439,14.651-14.371,14.651H115.907c-7.932,0-14.382-6.45-14.382-14.382L119.897,353.837z M64.909,338.481
			c12.356,0.942,21.689,10.71,20.839,21.806c-0.851,11.102-11.555,19.333-23.911,18.391s-21.689-10.704-20.838-21.806
			S52.552,337.539,64.909,338.481z M21.089,423.679c0.019-0.643,0.667-1.145,1.457-1.127L45.3,423.22l0.544-18.654
			c0.019-0.643,0.673-1.145,1.457-1.126l18.482,0.545c0.784,0.024,1.408,0.562,1.39,1.205l-0.545,18.654l22.748,0.667
			c0.783,0.024,1.408,0.562,1.389,1.205l-0.447,15.153c-0.018,0.643-0.673,1.145-1.457,1.126l-22.754-0.667l-0.545,18.654
			c-0.018,0.643-0.673,1.144-1.457,1.126l-18.482-0.545c-0.783-0.024-1.408-0.563-1.389-1.206l0.551-18.653l-22.754-0.667
			c-0.784-0.024-1.408-0.563-1.39-1.206L21.089,423.679z"/>
	</g>
</g>
<g>
</g>
<g>
</g>
<g>
</g>
<g>
</g>
<g>
</g>
<g>
</g>
<g>
</g>
<g>
</g>
<g>
</g>
<g>
</g>
<g>
</g>
<g>
</g>
<g>
</g>
<g>
</g>
<g>
</g>
</svg>
