<?xml version="1.0" encoding="iso-8859-1"?>
<!-- Generator: Adobe Illustrator 17.1.0, SVG Export Plug-In . SVG Version: 6.00 Build 0)  -->
<!DOCTYPE svg PUBLIC "-//W3C//DTD SVG 1.1//EN" "http://www.w3.org/Graphics/SVG/1.1/DTD/svg11.dtd">
<svg version="1.1" id="Capa_1" xmlns="http://www.w3.org/2000/svg" xmlns:xlink="http://www.w3.org/1999/xlink" x="0px" y="0px"
	 viewBox="0 0 286 286" style="enable-background:new 0 0 286 286;" xml:space="preserve">
<g>
	<path d="M286,217.5c0-7.18-5.82-13-13-13H13c-7.18,0-13,5.82-13,13v52c0,7.18,5.82,13,13,13h260c7.18,0,13-5.82,13-13V217.5z
		 M52,256.5H17v-27h35V256.5z M102,256.5H67v-27h35V256.5z"/>
	<path d="M13.381,181.5h259.904c3.627,0,6.921-1.45,9.037-4.102c2.115-2.652,2.866-6.13,2.06-9.667l-34.85-152.737
		C248.04,8.44,241.603,3.5,234.881,3.5H51.785c-6.723,0-13.159,4.94-14.652,11.494L2.283,167.828
		c-0.806,3.537-0.055,6.967,2.062,9.619C6.46,180.098,9.754,181.5,13.381,181.5z M102.377,54.146
		c0.509-5.397,6.142-9.688,12.57-9.688c6.429,0,11.487,4.291,11.274,9.688c-0.159,4.022-3.195,7.554-7.446,9.189l-0.83,14.982
		l20.04,8.514l0.59-51.331h-7.372c-1.171,0-2.224-0.59-2.725-1.416c-0.498-0.821-0.365-1.838,0.344-2.579l12.107-12.663
		c0.565-0.59,1.463-0.947,2.418-0.947c0.953,0,1.85,0.344,2.415,0.934l12.107,12.643c0.71,0.741,0.843,1.791,0.344,2.612
		c-0.5,0.826-1.554,1.415-2.722,1.415h-7.374l0.481,41.826l19.641-8.325L167.559,56.5h-3.709c-1.806,0-3.32-1.04-3.379-2.537
		l-0.523-13.107c-0.055-1.398,1.304-2.356,3.034-2.356h16.711c1.73,0,3.24,1.05,3.371,2.447l1.252,13.054
		c0.141,1.497-1.209,2.498-3.015,2.498h-3.709l1.185,15.301c0.137,1.748-0.907,3.442-2.689,4.194l-27.369,11.604l0.349,30.449
		c8.538,2.375,15.088,10.044,15.472,19.404c0.485,11.84-9.013,21.886-21.191,21.886c-12.181,0-21.679-10.038-21.194-21.878
		c0.383-9.36,6.934-17.016,15.472-19.391l0.235-20.479l-27.934-12.048c-1.816-0.784-2.881-2.453-2.739-4.274l1.406-17.935
		C104.561,61.7,101.998,58.168,102.377,54.146z"/>
</g>
<g>
</g>
<g>
</g>
<g>
</g>
<g>
</g>
<g>
</g>
<g>
</g>
<g>
</g>
<g>
</g>
<g>
</g>
<g>
</g>
<g>
</g>
<g>
</g>
<g>
</g>
<g>
</g>
<g>
</g>
</svg>
