<?xml version="1.0"?>
<svg xmlns="http://www.w3.org/2000/svg" viewBox="0 0 24 24">
    <path style="text-indent:0;text-align:start;line-height:normal;text-transform:none;block-progression:tb;-inkscape-font-specification:Sans" d="M 12 2 C 6.4889972 2 2 6.4889972 2 12 C 2 17.511003 6.4889972 22 12 22 C 17.511003 22 22 17.511003 22 12 C 22 6.4889972 17.511003 2 12 2 z M 12 4 C 16.430123 4 20 7.5698774 20 12 C 20 16.430123 16.430123 20 12 20 C 7.5698774 20 4 16.430123 4 12 C 4 7.5698774 7.5698774 4 12 4 z M 11.28125 6.28125 L 6.28125 11.28125 L 5.59375 12 L 6.28125 12.71875 L 11.28125 17.71875 L 12.71875 16.28125 L 9.4375 13 L 18 13 L 18 11 L 9.4375 11 L 12.71875 7.71875 L 11.28125 6.28125 z" overflow="visible" font-family="Sans"/>
</svg>
