<?xml version="1.0" encoding="iso-8859-1"?>
<!-- Generator: Adobe Illustrator 18.0.0, SVG Export Plug-In . SVG Version: 6.00 Build 0)  -->
<!DOCTYPE svg PUBLIC "-//W3C//DTD SVG 1.1//EN" "http://www.w3.org/Graphics/SVG/1.1/DTD/svg11.dtd">
<svg version="1.1" id="Capa_1" xmlns="http://www.w3.org/2000/svg" xmlns:xlink="http://www.w3.org/1999/xlink" x="0px" y="0px"
	 viewBox="0 0 439.187 439.187" style="enable-background:new 0 0 439.187 439.187;" xml:space="preserve">
<g>
	<path d="M219.593,263.342c11.208,0,22.417-4.267,30.949-12.799c8.268-8.267,12.82-19.258,12.82-30.949
		c0-11.691-4.553-22.682-12.819-30.949c-17.065-17.065-44.833-17.066-61.899,0s-17.065,44.833,0,61.898
		C197.177,259.075,208.385,263.342,219.593,263.342z M199.25,199.25c5.608-5.608,12.976-8.413,20.343-8.413
		c7.367,0,14.734,2.804,20.342,8.413c5.435,5.434,8.427,12.659,8.427,20.343c0,7.685-2.992,14.909-8.426,20.343
		c-0.001,0-0.001,0-0.001,0c-11.218,11.217-29.468,11.216-40.685,0C188.033,228.719,188.033,210.468,199.25,199.25z"/>
	<path d="M219.593,292.148c19.38,0,37.6-7.547,51.305-21.251c28.288-28.289,28.288-74.319-0.001-102.608s-74.319-28.289-102.608,0
		c-13.704,13.704-21.251,31.924-21.251,51.304s7.547,37.601,21.251,51.304C181.993,284.602,200.213,292.148,219.593,292.148z
		 M178.896,178.896c11.22-11.22,25.959-16.83,40.697-16.83c14.739,0,29.478,5.61,40.698,16.83c22.44,22.441,22.44,58.955,0,81.396
		c-10.87,10.871-25.324,16.857-40.698,16.857s-29.827-5.987-40.697-16.857C156.455,237.85,156.455,201.336,178.896,178.896z"/>
	<path d="M374.87,64.317C333.393,22.842,278.249,0,219.593,0c-58.655,0-113.8,22.842-155.275,64.317S0,160.938,0,219.593
		s22.842,113.8,64.317,155.276s96.62,64.317,155.275,64.317c58.656,0,113.8-22.842,155.277-64.317
		c41.475-41.476,64.316-96.621,64.316-155.276S416.344,105.793,374.87,64.317z M74.924,74.924C113.567,36.281,164.944,15,219.593,15
		c52.141,0,101.296,19.386,139.261,54.727l-82.76,82.76c-2.929,2.929-2.929,7.678,0,10.606c1.465,1.464,3.385,2.197,5.304,2.197
		s3.839-0.732,5.304-2.197l82.758-82.758c17.496,18.812,30.797,40.136,39.885,62.775l-12.75,12.75
		c-2.929,2.929-2.929,7.678,0,10.606c1.465,1.464,3.385,2.197,5.304,2.197s3.839-0.732,5.304-2.197l7.692-7.692
		c1.654,5.342,3.091,10.737,4.298,16.174L174.841,419.302c-5.459-1.212-10.851-2.653-16.169-4.305l217.031-217.03
		c2.929-2.929,2.929-7.678,0-10.606c-2.93-2.929-7.678-2.929-10.607,0L143.03,409.425c-22.935-9.247-44.153-22.701-62.701-39.968
		l81.878-81.869c2.929-2.929,2.929-7.678,0-10.607c-2.929-2.928-7.678-2.929-10.607,0l-81.877,81.868
		C-4.793,278.723-3.069,152.917,74.924,74.924z M364.262,364.263c-38.643,38.643-90.021,59.924-144.669,59.924
		c-9.003,0-17.914-0.59-26.697-1.727L422.355,193C430.267,253.856,410.912,317.613,364.262,364.263z"/>
	<path d="M378.976,180.032c0.18,0.45,0.42,0.89,0.689,1.29c0.271,0.41,0.58,0.8,0.931,1.14c0.34,0.35,0.729,0.66,1.14,0.94
		c0.41,0.27,0.84,0.5,1.29,0.69c0.46,0.19,0.93,0.33,1.41,0.43c0.479,0.09,0.97,0.14,1.46,0.14s0.98-0.05,1.47-0.14
		c0.48-0.1,0.95-0.24,1.4-0.43s0.89-0.42,1.29-0.69c0.42-0.28,0.8-0.59,1.14-0.94c0.351-0.34,0.66-0.73,0.94-1.14
		c0.27-0.4,0.5-0.84,0.689-1.29c0.181-0.45,0.33-0.92,0.42-1.4c0.101-0.49,0.15-0.98,0.15-1.47c0-0.49-0.05-0.98-0.15-1.46
		c-0.09-0.48-0.239-0.95-0.42-1.41c-0.189-0.45-0.42-0.88-0.689-1.29c-0.28-0.41-0.59-0.8-0.94-1.14c-0.34-0.35-0.72-0.66-1.14-0.93
		c-0.4-0.27-0.84-0.51-1.29-0.69c-0.45-0.19-0.92-0.33-1.4-0.43c-0.97-0.2-1.97-0.2-2.93,0c-0.48,0.1-0.95,0.24-1.41,0.43
		c-0.45,0.18-0.88,0.42-1.29,0.69s-0.8,0.58-1.14,0.93c-0.351,0.34-0.66,0.73-0.931,1.14c-0.27,0.41-0.51,0.84-0.689,1.29
		c-0.19,0.46-0.34,0.93-0.43,1.41c-0.101,0.48-0.15,0.97-0.15,1.46c0,0.49,0.05,0.98,0.15,1.47
		C378.636,179.112,378.786,179.582,378.976,180.032z"/>
</g>
<g>
</g>
<g>
</g>
<g>
</g>
<g>
</g>
<g>
</g>
<g>
</g>
<g>
</g>
<g>
</g>
<g>
</g>
<g>
</g>
<g>
</g>
<g>
</g>
<g>
</g>
<g>
</g>
<g>
</g>
</svg>
