<?xml version="1.0" encoding="iso-8859-1"?>
<!-- Generator: Adobe Illustrator 16.0.0, SVG Export Plug-In . SVG Version: 6.00 Build 0)  -->
<!DOCTYPE svg PUBLIC "-//W3C//DTD SVG 1.1//EN" "http://www.w3.org/Graphics/SVG/1.1/DTD/svg11.dtd">
<svg version="1.1" id="Capa_1" xmlns="http://www.w3.org/2000/svg" xmlns:xlink="http://www.w3.org/1999/xlink" x="0px" y="0px"
	 width="587.443px" height="587.443px" viewBox="0 0 587.443 587.443" style="enable-background:new 0 0 587.443 587.443;"
	 xml:space="preserve">
<g>
	<g>
		<path d="M244.477,221.301H80.987c-3.378,0-8.696,0.93-11.873,2.081l-48.526,17.522h212.34L244.477,221.301z"/>
		<path d="M237.892,240.903h329.954l-44.063-17.356c-3.146-1.236-8.434-2.246-11.812-2.246H246.968l1.848,1.089L237.892,240.903z"/>
		<polygon points="560.594,299.852 560.594,296.326 554.357,296.326 32.187,296.326 26.85,296.326 26.85,299.625 4.971,313.168 
			584.162,313.168 		"/>
		<path d="M230.738,366.143v-46.854H3.282L0.02,360.041c-0.269,3.373,2.252,6.102,5.631,6.102H230.738z"/>
		<path d="M235.021,319.289v46.854h346.772c3.378,0,5.899-2.729,5.63-6.102l-3.262-40.752H235.021z"/>
		<path d="M11.091,292.042h28.011h507.673h29.571c3.378,0,5.899-2.729,5.631-6.102l-2.772-34.651
			c-0.099-1.248-0.655-2.337-1.377-3.305c-0.441-0.587-0.942-1.083-1.543-1.505c-1.083-0.759-2.325-1.292-3.696-1.292H235.364
			l-0.349,0.588v1.554v2.142v39.811v2.754h-4.278v-2.754v-39.811v-2.142v-2.142H14.842c-1.377,0-2.625,0.539-3.715,1.304
			c-0.594,0.422-1.089,0.918-1.53,1.5c-0.716,0.967-1.267,2.056-1.371,3.299L5.454,285.94
			C5.191,289.306,7.712,292.042,11.091,292.042z M552.051,258.125v17.932c0,0.098,0.085,0.184,0.189,0.184h-0.189l5.538,0.006
			c0.104,0,0.189,0.086,0.189,0.184v2.473c0,0.104-0.085,0.189-0.189,0.189h-5.349c-0.098,0-0.189,0.086-0.189,0.19v2.466
			c0,0.104-0.086,0.19-0.19,0.19h-5.36c-0.099,0-0.184-0.086-0.184-0.19v-2.515c-0.019-0.08-0.086-0.135-0.172-0.141H516.31
			c-1.39,0-2.081-0.385-2.344-0.948c-0.307-0.649,0.116-1.524,1.383-2.301l32.124-19.725
			C550.141,254.465,552.051,255.371,552.051,258.125z M491.278,274.777v-12.319c0-4.052,2.473-7.167,7.528-7.167h17.424
			c0.098,0,0.184,0.085,0.184,0.189v2.473c0,0.098-0.08,0.184-0.184,0.184h-15.533c-2.509,0-3.696,1.805-3.696,4.32v12.332
			c0,4.058-2.479,7.16-7.527,7.16h-18.269c-0.104,0-0.189-0.085-0.189-0.189v-2.473c0-0.104,0.086-0.189,0.184-0.189h16.383
			C490.085,279.092,491.278,277.287,491.278,274.777z M462.863,258.137h-29.627c-0.104,0-0.189-0.086-0.189-0.19v-2.472
			c0-0.104,0.086-0.184,0.189-0.184h31.519c5.055,0,7.527,3.115,7.527,7.172c0,4.051-2.473,7.161-7.527,7.161h-22.467
			c-2.074,0-3.525,1.756-3.525,4.266v7.87c0,0.104-0.085,0.189-0.189,0.189h-5.343c-0.104,0-0.189-0.079-0.189-0.189v-7.87
			c0-4.058,2.741-7.112,6.377-7.112h23.434c2.509,0,3.702-1.805,3.702-4.314C466.566,259.942,465.373,258.137,462.863,258.137z"/>
		<path d="M546.132,276.24c0.104,0,0.19-0.086,0.19-0.19v-15.306c0-0.343-0.288-0.361-0.459-0.251l-24.891,15.325
			c-0.146,0.098-0.214,0.184-0.184,0.306c0.031,0.074,0.135,0.123,0.337,0.123h25.006V276.24z"/>
	</g>
</g>
<g>
</g>
<g>
</g>
<g>
</g>
<g>
</g>
<g>
</g>
<g>
</g>
<g>
</g>
<g>
</g>
<g>
</g>
<g>
</g>
<g>
</g>
<g>
</g>
<g>
</g>
<g>
</g>
<g>
</g>
</svg>
