<?xml version="1.0" encoding="iso-8859-1"?>
<!-- Generator: Adobe Illustrator 19.0.0, SVG Export Plug-In . SVG Version: 6.00 Build 0)  -->
<svg version="1.1" id="Capa_1" xmlns="http://www.w3.org/2000/svg" xmlns:xlink="http://www.w3.org/1999/xlink" x="0px" y="0px"
	 viewBox="0 0 512 512" style="enable-background:new 0 0 512 512;" xml:space="preserve">
<g>
	<g>
		<g>
			<path d="M274.285,0.914C268.434,0.366,262.4,0,256,0c-6.4,0-12.434,0.366-18.286,0.914v90.514h36.571V0.914z"/>
			<path d="M356.571,80.914c-0.015-0.398,0.016-0.797,0.091-1.189c1.378-18.557-4.525-36.921-16.457-51.2
				c-12.738-13.299-29.458-22.093-47.634-25.051v87.954h64V80.914z"/>
			<path d="M411.428,194.743V134.4c0-3.931-2.194-6.4-3.291-6.4h-14.994v73.143h14.994
				C409.234,201.143,411.428,198.674,411.428,194.743z"/>
			<path d="M155.428,80.914v10.514h64V3.474c-18.176,2.959-34.896,11.752-47.634,25.051c-11.932,14.279-17.835,32.643-16.457,51.2
				C155.413,80.117,155.443,80.516,155.428,80.914z"/>
			<path d="M171.428,377.783l-31.543,17.28c10.88,22.034,55.131,43.794,116.114,43.794c53.12,0,99.657-16.914,114.194-40.32
				l-38.4-19.291c-15.432-7.669-25.151-23.454-25.051-40.686v-34.286c0-4.243,1.488-8.352,4.206-11.611
				c1.92-2.377,4.114-5.303,6.4-8.594c10.096-14.338,18.301-29.918,24.411-46.354H162.926c6.435,19.914,16.103,38.632,28.617,55.406
				c2.46,3.16,3.781,7.058,3.749,11.063v33.371C195.308,354.323,186.152,369.758,171.428,377.783z"/>
			<path d="M466.285,490.697c0.098-26.946-15.106-51.613-39.223-63.634l-40.503-20.297c-17.646,30.08-68.937,50.377-130.56,50.377
				c-63.817,0-116.389-21.851-132.206-53.303l-41.143,22.491c-22.804,12.496-36.968,36.443-36.937,62.446l0,23.223h420.572
				L466.285,490.697z"/>
			<path d="M146.286,219.429h219.429c5.043-0.015,9.128-4.1,9.143-9.143v-91.429c-0.015-5.043-4.1-9.128-9.143-9.143H146.286
				c-5.043,0.015-9.128,4.1-9.143,9.143v91.429C137.158,215.329,141.242,219.414,146.286,219.429z M155.428,146.286
				c0.029-10.087,8.199-18.256,18.286-18.286h164.571c10.087,0.029,18.256,8.199,18.286,18.286v9.143
				c0,5.049-4.093,9.143-9.143,9.143s-9.143-4.093-9.143-9.143v-9.143H173.714v9.143c0,5.049-4.093,9.143-9.143,9.143
				c-5.049,0-9.143-4.093-9.143-9.143V146.286z"/>
			<path d="M103.863,201.143h14.994V128h-14.994c-1.097,0-3.291,2.469-3.291,6.4v60.343
				C100.571,198.674,102.765,201.143,103.863,201.143z"/>
		</g>
	</g>
</g>
<g>
</g>
<g>
</g>
<g>
</g>
<g>
</g>
<g>
</g>
<g>
</g>
<g>
</g>
<g>
</g>
<g>
</g>
<g>
</g>
<g>
</g>
<g>
</g>
<g>
</g>
<g>
</g>
<g>
</g>
</svg>
