<?xml version="1.0" encoding="iso-8859-1"?>
<!-- Generator: Adobe Illustrator 16.0.0, SVG Export Plug-In . SVG Version: 6.00 Build 0)  -->
<!DOCTYPE svg PUBLIC "-//W3C//DTD SVG 1.1//EN" "http://www.w3.org/Graphics/SVG/1.1/DTD/svg11.dtd">
<svg version="1.1" id="Capa_1" xmlns="http://www.w3.org/2000/svg" xmlns:xlink="http://www.w3.org/1999/xlink" x="0px" y="0px"
	 width="571.516px" height="571.516px" viewBox="0 0 571.516 571.516" style="enable-background:new 0 0 571.516 571.516;"
	 xml:space="preserve">
<g>
	<g>
		<circle cx="432.305" cy="404.333" r="7.13"/>
		<circle cx="395.584" cy="404.333" r="7.13"/>
		<circle cx="503.498" cy="248.915" r="7.13"/>
		<path d="M212.841,165.916h145.845c3.728,0,6.757-3.036,6.757-6.763s-3.029-6.763-6.757-6.763H212.841
			c-3.727,0-6.763,3.036-6.763,6.763S209.108,165.916,212.841,165.916z"/>
		<circle cx="532.171" cy="271.48" r="7.13"/>
		<circle cx="474.82" cy="271.48" r="7.13"/>
		<circle cx="503.498" cy="294.038" r="7.13"/>
		<circle cx="525.677" cy="204.172" r="15.765"/>
		<path d="M64.596,248.462v17.889H46.708c-0.422,0-0.765,0.343-0.765,0.759v8.733c0,0.416,0.343,0.759,0.765,0.759h17.889v17.889
			c0,0.416,0.343,0.759,0.759,0.759h8.733c0.417,0,0.759-0.343,0.759-0.759v-17.889h17.889c0.416,0,0.759-0.343,0.759-0.759v-8.733
			c0-0.416-0.343-0.759-0.759-0.759H74.847v-17.889c0-0.416-0.342-0.759-0.759-0.759h-8.733
			C64.939,247.704,64.596,248.04,64.596,248.462z"/>
		<circle cx="45.159" cy="204.172" r="15.765"/>
		<path d="M70.949,438.293h429.618c39.187,0,70.949-31.77,70.949-70.949V204.172c0-39.186-31.763-70.949-70.949-70.949H70.949
			C31.763,133.223,0,164.986,0,204.172v163.172C0.006,406.523,31.769,438.293,70.949,438.293z M395.584,417.582
			c-7.301,0-13.243-5.942-13.243-13.249c0-7.308,5.942-13.25,13.243-13.25c7.302,0,13.25,5.942,13.25,13.25
			C408.834,411.64,402.886,417.582,395.584,417.582z M432.305,417.582c-7.302,0-13.244-5.942-13.244-13.249
			c0-7.308,5.942-13.25,13.244-13.25c7.301,0,13.249,5.942,13.249,13.25C445.554,411.64,439.605,417.582,432.305,417.582z
			 M532.171,284.724c-7.302,0-13.244-5.943-13.244-13.25s5.942-13.25,13.244-13.25c7.301,0,13.249,5.943,13.249,13.25
			S539.478,284.724,532.171,284.724z M525.677,182.287c12.069,0,21.886,9.816,21.886,21.891c0,12.068-9.816,21.885-21.886,21.885
			c-12.068,0-21.885-9.817-21.885-21.885C503.792,192.104,513.608,182.287,525.677,182.287z M503.498,235.672
			c7.302,0,13.25,5.942,13.25,13.25s-5.948,13.25-13.25,13.25c-7.301,0-13.25-5.943-13.25-13.25S496.191,235.672,503.498,235.672z
			 M503.498,280.788c7.302,0,13.25,5.942,13.25,13.25s-5.948,13.25-13.25,13.25c-7.301,0-13.25-5.942-13.25-13.25
			S496.191,280.788,503.498,280.788z M474.82,258.23c7.301,0,13.243,5.942,13.243,13.25c0,7.307-5.942,13.25-13.243,13.25
			c-7.302,0-13.25-5.942-13.25-13.25C461.57,264.172,467.519,258.23,474.82,258.23z M212.841,146.271h145.845
			c7.1,0,12.877,5.777,12.877,12.883s-5.777,12.883-12.877,12.883H212.841c-7.105,0-12.883-5.777-12.883-12.883
			C199.953,152.048,205.729,146.271,212.841,146.271z M124.64,193.193h322.23v185.124H124.64V193.193z M74.088,241.583
			c3.794,0,6.879,3.084,6.879,6.879v11.769h11.769c3.794,0,6.879,3.084,6.879,6.879v8.733c0,3.794-3.084,6.879-6.879,6.879H80.967
			v11.769c0,3.794-3.084,6.879-6.879,6.879h-8.733c-3.794,0-6.879-3.085-6.879-6.879v-11.769H46.708
			c-3.794,0-6.885-3.084-6.885-6.879v-8.733c0-3.794,3.09-6.879,6.885-6.879h11.769v-11.769c0-3.794,3.084-6.879,6.879-6.879H74.088
			z M45.159,182.287c12.075,0,21.891,9.816,21.891,21.891c0,12.068-9.816,21.885-21.891,21.885
			c-12.068,0-21.885-9.817-21.885-21.885C23.274,192.104,33.091,182.287,45.159,182.287z"/>
		<path d="M257.205,255.911c-5.257-0.006-10.521-0.006-15.784,0c-0.887,0-0.894,0.012-1.132,0.918
			c-0.752,2.895-1.505,5.79-2.24,8.69c-3.886,15.232-7.766,30.465-11.659,45.698c-0.146,0.575-0.22,1.188-0.643,1.959
			c-0.128-0.453-0.184-0.668-0.245-0.882c-3.513-13.348-7.014-26.702-10.539-40.049c-0.771-2.931-1.573-5.851-2.436-8.751
			c-0.624-2.087-1.628-4.009-3.28-5.465c-3.464-3.054-7.497-3.268-11.671-1.928c-2.889,0.93-4.639,3.158-5.851,5.851
			c-0.832,1.866-1.297,3.855-1.824,5.814c-3.947,14.7-7.809,29.424-11.628,44.162c-0.092,0.343-0.092,0.747-0.459,1.157
			c-0.135-0.423-0.257-0.723-0.337-1.035c-2.172-8.506-4.345-17.014-6.511-25.52c-2.521-9.884-5.043-19.762-7.571-29.646
			c-0.245-0.949-0.257-0.955-1.211-0.955c-5.184-0.006-10.368-0.006-15.557,0c-1.126,0-1.126,0.012-0.857,1.065
			c0.037,0.147,0.061,0.3,0.104,0.447c1.665,5.985,3.33,11.971,4.994,17.956c4.045,14.56,8.084,29.113,12.271,43.63
			c0.71,2.466,1.267,4.993,2.344,7.338c2.136,4.62,5.459,7.772,10.784,8.2c3.274,0.264,6.23-0.605,8.703-2.864
			c2.228-2.031,3.568-4.608,4.394-7.447c1.665-5.747,3.274-11.506,4.865-17.271c2.46-8.911,4.884-17.828,7.332-26.739
			c0.055-0.196,0-0.478,0.318-0.532c0.269,0.202,0.269,0.539,0.349,0.814c3.188,11.609,6.346,23.231,9.541,34.841
			c0.924,3.366,1.781,6.75,2.938,10.043c1.004,2.846,2.528,5.367,5.031,7.136c4.664,3.293,11.708,2.772,15.924-2.16
			c1.756-2.057,2.858-4.437,3.599-7.008c1.64-5.716,3.317-11.413,4.926-17.136c3.134-11.15,6.236-22.307,9.339-33.464
			c1.475-5.282,2.932-10.569,4.388-15.851C258.19,255.935,258.172,255.911,257.205,255.911z"/>
		<path d="M421.57,258.462c-1.188-4.027-4.486-6.646-8.801-6.964c-3.22-0.239-6.451-0.074-9.676-0.11
			c-1.689-0.018-1.414-0.061-1.414,1.414c-0.006,9.18-0.012,18.354,0,27.534c0,2.393-0.178,4.755-0.746,7.081
			c-1.812,7.375-6.328,12.13-13.746,13.967c-4.155,1.033-8.354,1.07-12.559,0.171c-7.803-1.671-12.613-6.407-14.534-14.132
			c-0.618-2.478-0.777-5.006-0.783-7.539c-0.019-8.984-0.007-17.975-0.007-26.959c0-0.269-0.019-0.539,0-0.808
			c0.049-0.545-0.177-0.753-0.722-0.741c-3.452,0.062-6.916-0.134-10.367,0.123c-4.529,0.336-7.853,3.17-8.923,7.546
			c-0.251,1.01-0.368,2.038-0.368,3.079c0.007,12.172,0.007,24.345,0,36.518c0,1.506,0.166,2.992,0.502,4.455
			c1.182,5.165,4.235,8.574,9.419,9.976c1.83,0.496,3.69,0.686,5.581,0.686c8.679-0.006,17.356-0.006,26.035-0.006
			c8.678,0,17.356-0.007,26.034,0.006c1.695,0,3.372-0.129,5.03-0.514c5.221-1.23,8.581-4.389,9.921-9.621
			c0.478-1.866,0.661-3.776,0.655-5.704c0-8.678,0-17.356,0.006-26.034c0-3.188,0-6.377,0-9.56
			C422.121,261.008,421.943,259.717,421.57,258.462z"/>
		<path d="M283.025,279.828c-5.031-0.006-10.062-0.006-15.092,0c-0.79,0-0.796,0.03-0.82,0.869c-0.006,0.153,0,0.306,0,0.459
			c0,17.167,0,34.333,0,51.494c0,0.269,0.006,0.538,0,0.808c0,0.392,0.202,0.551,0.575,0.538c0.19-0.006,0.379,0,0.575,0
			c4.804,0,9.603,0,14.4,0c1.322,0,1.218,0.056,1.224-1.278c0-8.562,0-17.13,0-25.691c0-8.525,0-17.051,0-25.576
			c0-0.269,0.006-0.539,0-0.808C283.857,279.852,283.852,279.828,283.025,279.828z"/>
		<path d="M316.826,279.821c-4.872,0-9.749-0.006-14.621,0c-1.016,0-1.016,0.012-1.034,0.998c0,0.116,0,0.232,0,0.343
			c0,17.155,0,34.309,0,51.463c0,0.152,0,0.306,0,0.459c0.019,0.881,0.019,0.905,0.894,0.905c4.988,0.006,9.976,0.006,14.964,0
			c0.894,0,0.894-0.019,0.918-0.881c0.006-0.27,0-0.539,0-0.808c0-8.446,0-16.886,0-25.331c0-0.27,0-0.538,0-0.808
			c0-8.403,0-16.812,0-25.215C317.952,279.828,317.946,279.821,316.826,279.821z"/>
		<path d="M368.148,280.617c0.092,1.817,0.508,3.568,1.315,5.195c2.02,4.064,5.312,6.199,9.854,6.188
			c4.486-0.012,7.76-2.123,9.762-6.145c1.01-2.032,1.401-4.216,1.407-6.481c0-4.584,0-9.162,0-13.746l0,0c0-4.933,0-9.865,0-14.798
			c0-1.041-0.012-1.047-1.01-1.053c-1.175-0.006-2.35,0-3.525,0c-5.6,0-11.199,0-16.799,0c-1.041,0-1.041,0.012-1.059,1.003
			c-0.007,0.233,0,0.471,0,0.704c0,8.574,0,17.148,0,25.722C368.1,278.346,368.087,279.485,368.148,280.617z"/>
		<path d="M304.396,252.704c-5.386,3.152-6.267,9.712-2.681,14.064c2.834,3.433,7.938,4.571,12.136,2.576
			c3.544-1.689,5.404-4.517,5.558-8.439c0.03-2.05-0.612-3.862-1.787-5.496C314.721,251.363,308.705,250.182,304.396,252.704z"/>
		<path d="M275.504,251.412c-1.634-0.03-3.195,0.288-4.664,1.022c-5.833,2.938-7.13,10.318-2.662,14.896
			c3.225,3.305,8.568,4.021,12.785,1.389c4.798-2.999,5.869-9.321,2.301-13.697C281.287,252.587,278.631,251.467,275.504,251.412z"
			/>
	</g>
</g>
<g>
</g>
<g>
</g>
<g>
</g>
<g>
</g>
<g>
</g>
<g>
</g>
<g>
</g>
<g>
</g>
<g>
</g>
<g>
</g>
<g>
</g>
<g>
</g>
<g>
</g>
<g>
</g>
<g>
</g>
</svg>
